# xmcd CD database file
#
# Track frame offsets:
#	182
#	13255
#	25867
#	40727
#	56390
#	96495
#	131977
#	148875
#	182397
#	206910
#	224397
#	247195
#	270690
#	286602
#
# Disc length: 4029 seconds
#
# Revision: 2
# Processed by: cddbd v1.4PL0 Copyright (c) Steve Scherf et al.
# Submitted via: CDex 1.50
#
DISCID=da0fbb0e
DTITLE=Curtis Mayfield and The Impressions - The Anthology 1961-1977 [CD2]
DYEAR=1992
DGENRE=Revival
TTITLE0=Fool For You
TTITLE1=This Is My Country
TTITLE2=Choice Of Colors
TTITLE3=Check Out Your Mind
TTITLE4=Move On Up
TTITLE5=(Don't Worry) If There's A Hell Below We're All Going To Go
TTITLE6=The Makings Of You
TTITLE7=Beautiful Brother Of Mine
TTITLE8=Freddie's Dead
TTITLE9=Superfly
TTITLE10=Pusherman
TTITLE11=So In Love
TTITLE12=Only You Babe (Single Edit)
TTITLE13=Do Do Wap Is Strong In Here (Single Edit)
EXTD=YEAR: 1992
EXTT0=
EXTT1=
EXTT2=
EXTT3=
EXTT4=
EXTT5=
EXTT6=
EXTT7=
EXTT8=
EXTT9=
EXTT10=
EXTT11=
EXTT12=
EXTT13=
PLAYORDER=
